<svg version="1.1" id="Layer_1" xmlns="http://www.w3.org/2000/svg" xmlns:xlink="http://www.w3.org/1999/xlink" x="0px" y="0px"
	 width="100%" viewBox="0 0 624 208" enable-background="new 0 0 624 208" xml:space="preserve">
<path fill="#acb5c1" opacity="1.000000" stroke="none" 
	d="
M221.626373,187.222748 
	C220.315994,184.771591 220.793549,182.716827 221.442841,180.589691 
	C227.490509,160.776611 235.601913,142.362946 254.582794,131.246658 
	C255.166504,130.904816 255.853455,130.739273 256.387970,130.531982 
	C254.285065,127.496628 251.828232,128.192398 249.863831,127.875298 
	C235.369110,125.535400 221.304459,121.384644 207.126816,117.758232 
	C194.048996,114.413132 182.405182,117.114906 171.680054,124.766914 
	C165.089310,129.469162 159.824615,135.436462 155.659149,142.404907 
	C153.213394,146.496384 154.325424,149.519882 157.769257,152.399261 
	C163.499756,157.190506 176.888107,155.199814 179.925781,147.077606 
	C178.913712,145.840118 177.484238,146.204361 176.226318,146.282654 
	C173.618301,146.444931 171.645279,145.713623 170.655090,143.106857 
	C169.571671,140.254700 170.441086,137.836487 172.418411,135.785934 
	C176.270157,131.791534 184.170761,131.633423 190.120560,135.336716 
	C194.657501,138.160629 195.783630,142.242905 193.741745,148.463898 
	C189.478027,161.454208 178.764847,168.829086 165.231949,168.089844 
	C148.262512,167.162872 138.856415,150.118362 147.238220,135.523773 
	C153.346512,124.887939 162.294540,117.448021 173.215775,112.161171 
	C175.406677,111.100578 177.943756,110.600723 179.993103,108.264732 
	C173.580475,104.853523 166.914536,102.810989 160.236740,100.928802 
	C153.997284,99.170174 147.634125,97.840218 141.302841,96.422470 
	C138.690750,95.837547 136.111679,95.809692 135.686768,99.397606 
	C133.578690,117.198135 121.274208,127.348251 107.574577,136.114212 
	C98.657822,141.819778 88.579575,143.950607 77.901154,142.818268 
	C75.615509,142.575897 73.263718,142.983948 70.941261,143.055038 
	C68.195251,143.139084 66.135002,141.956177 64.732643,139.599579 
	C63.261158,137.126831 63.616302,134.792923 65.367805,132.652374 
	C76.265656,119.333870 84.152191,103.358910 99.595558,93.636734 
	C76.961823,91.765083 54.864559,95.073837 32.720592,98.930618 
	C55.717445,86.129784 81.174286,83.801933 106.554985,81.864883 
	C106.931084,79.503578 105.482330,78.625557 104.549271,77.574982 
	C97.594078,69.743736 93.453186,60.741604 92.224922,50.261459 
	C90.969208,39.547169 95.886078,32.322220 106.527283,30.521475 
	C116.127670,28.896860 125.130821,30.568794 133.010559,36.544392 
	C138.470093,40.684628 140.206192,46.483959 139.027695,53.011543 
	C137.892334,59.300156 134.448013,64.041801 128.222778,66.323303 
	C122.521637,68.412743 116.916389,65.829651 115.274979,60.492558 
	C114.581612,58.238071 114.741058,56.173687 116.452126,54.473194 
	C117.990723,52.944096 119.764153,53.266998 121.538902,54.128258 
	C124.823860,55.722401 127.374962,54.984531 128.961792,51.622406 
	C130.618652,48.111916 128.852921,45.836071 125.952988,44.229305 
	C120.134697,41.005577 114.126114,38.916626 107.330948,41.135483 
	C103.036484,42.537773 101.104942,45.381416 101.374207,49.768913 
	C102.346077,65.605095 116.629829,82.620590 132.982971,83.100685 
	C147.377472,83.523285 161.092636,88.187134 174.597641,93.066559 
	C176.900452,93.898582 179.199219,94.741776 181.881958,95.718987 
	C182.076477,92.640007 180.592148,90.731728 179.576736,88.758148 
	C170.788376,71.676720 170.230927,53.601948 173.090317,35.145031 
	C173.818359,30.445599 177.970596,27.796198 181.832382,30.220655 
	C197.357635,39.967499 213.713120,49.198669 216.872696,69.936180 
	C218.638748,81.527428 219.878845,93.087463 215.172455,104.361641 
	C214.855331,105.121330 214.669785,105.943802 214.500671,106.753296 
	C214.438751,107.049713 214.602463,107.393265 214.809372,108.489594 
	C225.741776,110.998955 236.974228,113.577194 248.575882,116.240173 
	C248.746643,113.195320 247.101364,111.625389 246.061554,109.866425 
	C240.682938,100.767807 237.814423,90.930428 237.824982,80.392189 
	C237.835098,70.282883 243.300888,63.280251 253.165848,59.956612 
	C262.249603,56.896160 274.340057,60.066673 279.672180,66.907417 
	C287.798889,77.333427 281.368256,96.215958 268.540466,99.685822 
	C264.388489,100.808914 261.233398,99.085823 258.955475,95.979889 
	C256.223450,92.254807 253.111725,88.329132 255.205673,83.220757 
	C256.459381,80.162201 259.870453,79.920593 263.158997,82.987251 
	C265.840454,85.487770 267.858704,86.584763 270.306122,82.960266 
	C272.772888,79.307152 272.572205,75.304756 269.332703,73.271759 
	C264.349976,70.144737 259.101288,69.600601 253.692596,72.414978 
	C248.597382,75.066246 247.784409,79.416245 248.116669,84.663025 
	C248.864639,96.474060 253.184952,106.584366 261.503174,115.003830 
	C263.543732,117.069221 265.829498,118.942558 268.727020,119.175453 
	C280.665405,120.135002 292.589172,120.422356 305.817200,116.586159 
	C302.145050,115.097885 299.776794,114.156067 297.423492,113.178261 
	C295.734222,112.476349 293.982697,111.868698 292.408905,110.959396 
	C290.691284,109.967010 289.696075,108.375122 290.567078,106.335579 
	C291.392365,104.403038 293.042389,105.082024 294.457245,105.479431 
	C301.343475,107.413612 308.259949,109.256447 315.078857,111.407036 
	C318.411194,112.458000 321.485077,112.462479 324.806213,111.417580 
	C331.470062,109.320984 338.209351,107.459084 344.943817,105.595383 
	C346.599182,105.137276 348.708710,104.063080 349.575012,106.694756 
	C350.370422,109.111046 348.674744,110.392448 346.841614,111.389526 
	C343.229065,113.354523 338.984802,113.964066 335.103638,116.674553 
	C341.057556,118.978638 346.839966,119.279762 352.598480,119.661919 
	C354.424286,119.783089 356.284302,119.523758 358.093750,119.736031 
	C378.858093,122.171982 384.855774,110.094452 390.476105,94.239098 
	C391.761963,90.611488 391.826141,86.717644 391.962646,82.889534 
	C392.169647,77.083916 389.988220,73.739098 384.730133,71.664688 
	C379.771118,69.708260 372.165100,71.024254 369.386749,74.478271 
	C366.778381,77.720947 368.194672,80.773682 370.277740,83.580673 
	C372.761902,86.928131 374.696533,84.681381 376.805267,82.897011 
	C378.601562,81.377037 380.721497,79.983635 383.136597,81.576950 
	C385.769806,83.314171 386.075348,86.024910 385.049255,88.699844 
	C383.108307,93.759758 380.779022,98.985268 374.715790,99.842743 
	C369.278442,100.611702 365.257538,97.244972 362.046997,93.173813 
	C355.944092,85.434883 355.006134,75.024803 359.642639,67.954742 
	C364.039459,61.250141 374.963593,57.291050 383.670074,59.246830 
	C397.715057,62.401810 404.069946,71.982330 401.931122,86.595360 
	C400.660492,95.276497 398.039154,103.437401 393.334076,110.900566 
	C392.484985,112.247398 391.230438,113.519379 391.525757,116.139832 
	C402.902893,113.567726 414.151642,111.024635 424.923035,108.589470 
	C426.017944,106.566216 425.323212,105.354355 424.861115,104.118187 
	C419.119110,88.757469 421.210083,73.659286 426.648285,58.780815 
	C429.132111,51.985325 434.310059,47.111511 439.870026,42.784836 
	C444.993774,38.797668 450.272827,34.982899 455.694885,31.413292 
	C462.039825,27.236084 466.283478,29.743246 467.395386,37.204617 
	C470.413910,57.460304 467.868134,76.684258 457.440552,94.459511 
	C459.390564,96.042961 460.724976,94.825569 461.968689,94.365913 
	C477.792145,88.517937 493.820251,83.812065 510.825439,82.615730 
	C522.126892,81.820671 534.543945,68.815643 537.646362,55.851585 
	C540.630676,43.380756 534.801025,37.817951 522.103577,40.951775 
	C518.824402,41.761101 515.717163,42.942577 513.036682,44.971508 
	C510.681641,46.754147 509.683502,49.102310 511.243988,51.981133 
	C512.766663,54.790131 515.068115,55.635490 517.959473,54.323868 
	C520.072021,53.365551 522.078735,52.665977 523.834412,54.777645 
	C525.654907,56.967289 525.473572,59.364815 524.294861,61.804844 
	C521.936646,66.686340 516.043884,68.444176 510.516663,65.897438 
	C499.933960,61.021328 497.362335,45.747543 505.752869,37.603668 
	C513.912170,29.684170 530.438232,27.404709 540.387878,32.826447 
	C545.779785,35.764610 548.699219,42.498837 547.947876,49.567867 
	C546.799133,60.375298 542.693787,69.784088 535.256592,77.737038 
	C534.383484,78.670700 533.228943,79.512291 533.299072,81.670135 
	C545.988403,83.418488 558.994263,83.446609 571.621155,86.196877 
	C584.126587,88.920700 596.526672,92.002403 607.597595,99.018204 
	C585.308105,95.111389 563.125610,91.803955 540.245361,93.465149 
	C554.803833,102.891739 562.800720,117.807137 573.173157,130.627258 
	C575.280762,133.232239 577.520264,135.895737 575.274597,139.587906 
	C573.062012,143.225662 569.765869,142.920013 566.071655,142.754974 
	C559.461975,142.459686 552.710999,143.953537 546.260986,141.715057 
	C524.620361,134.204651 507.700470,122.103264 504.072144,97.394463 
	C504.029053,97.101067 503.736542,96.844299 503.188965,95.992538 
	C488.323212,97.523026 474.080658,102.062263 460.081299,107.983093 
	C460.904663,110.637871 463.031921,110.549347 464.562408,111.213005 
	C476.702881,116.477448 486.462769,124.453072 493.057434,136.048920 
	C499.351501,147.116119 495.839844,159.137451 484.588409,165.228668 
	C468.761780,173.796768 447.453613,162.781845 445.288574,144.913208 
	C444.618347,139.381607 447.556671,135.584564 454.169403,133.436951 
	C460.039703,131.530457 466.681732,133.410416 468.894348,137.604645 
	C471.123810,141.830765 468.711487,145.938416 463.835236,146.244171 
	C462.698120,146.315460 461.565643,146.460907 460.587219,146.556915 
	C459.603851,148.149841 460.586609,148.983032 461.370544,149.794800 
	C465.945435,154.532196 471.585052,155.993820 477.854828,154.561417 
	C485.316071,152.856842 487.501801,147.075989 483.251984,140.683533 
	C473.368256,125.816742 460.349304,115.978928 441.700409,116.359619 
	C433.362518,116.529831 425.410858,119.589638 417.391388,121.716072 
	C407.559265,124.323151 397.684021,126.618942 387.639496,128.199188 
	C386.377838,128.397675 384.914246,128.167755 384.160217,129.809738 
	C384.392639,130.159882 384.561401,130.710220 384.926422,130.921539 
	C402.557770,141.128296 411.201355,157.678360 417.176697,176.215668 
	C421.000824,188.079254 419.453094,190.190643 407.037872,189.046432 
	C395.678864,187.999573 384.290863,186.638657 375.196289,178.905075 
	C361.217560,167.018280 352.354889,152.857544 357.242004,133.444931 
	C357.961548,130.586777 356.438751,129.603043 354.253326,129.496658 
	C342.986511,128.948166 332.251007,126.045219 321.646545,122.477417 
	C319.409302,121.724709 317.354004,122.667732 315.327850,123.349968 
	C305.985138,126.495827 296.519073,128.976822 286.593597,129.349365 
	C284.078583,129.443756 281.553986,130.029160 282.837524,133.478821 
	C289.766449,152.101196 272.857056,177.958359 255.389648,184.519470 
	C246.018097,188.039581 236.309662,188.886429 226.473434,189.226486 
	C224.743179,189.286316 223.187271,188.764648 221.626373,187.222748 
M204.849899,70.658142 
	C201.128372,59.855698 195.385071,50.876804 183.992279,46.509453 
	C178.618591,61.046696 187.739227,92.924072 198.706604,98.569763 
	C197.794098,92.805565 196.023285,87.443230 195.470184,81.830238 
	C194.938187,76.431419 193.925201,71.105904 196.426895,65.829994 
	C201.410126,74.210808 202.086838,83.933319 206.417175,93.815720 
	C207.035721,85.370422 207.227631,78.339172 204.849899,70.658142 
M444.553894,96.791092 
	C455.698425,81.795753 458.841797,65.025352 456.856476,46.462822 
	C440.129700,51.706696 428.050781,77.489799 434.360870,92.545769 
	C437.585114,83.577293 438.748535,74.013000 443.625763,65.618553 
	C446.910309,76.950996 443.259674,87.700661 441.139465,98.717636 
	C442.800415,98.743225 443.412750,97.923569 444.553894,96.791092 
M541.069702,112.384590 
	C542.279480,113.986938 544.317017,115.158379 544.108948,118.481232 
	C539.064636,115.801041 534.597839,113.375923 530.083069,111.043541 
	C525.640808,108.748596 521.585388,105.613678 516.319458,103.884987 
	C519.794983,119.636177 547.981323,136.700043 561.081177,131.377106 
	C551.224915,115.217674 540.343872,100.447578 520.383911,96.025330 
	C526.980896,101.473007 534.403931,105.887581 541.069702,112.384590 
M104.399170,113.982132 
	C101.594872,115.152420 99.217957,117.401039 94.768356,117.902084 
	C101.130051,107.969749 110.950752,103.609177 118.285706,96.546410 
	C98.589165,101.000580 88.533165,116.119423 78.504959,131.950333 
	C95.548309,134.359665 121.890244,117.724007 123.148247,103.600708 
	C116.877106,107.071167 110.960022,110.345688 104.399170,113.982132 
M378.232025,139.108856 
	C377.296722,140.533920 378.771851,141.181183 379.284241,142.045670 
	C385.134155,151.915878 391.390686,161.564713 396.791138,171.672058 
	C398.957520,175.726639 401.738373,176.918381 406.383057,177.462143 
	C402.417084,160.427994 393.093567,148.003021 378.232025,139.108856 
M261.808228,139.257278 
	C246.698227,147.564072 237.706787,160.281372 233.602310,177.511215 
	C237.204819,176.678360 240.294495,176.880005 241.847107,173.929565 
	C248.042023,162.157242 255.341858,151.039749 261.808228,139.257278 
M247.155182,172.648849 
	C246.821045,175.077698 248.459381,173.947403 249.202484,173.619217 
	C261.177032,168.330673 269.350586,159.696152 272.412109,146.729370 
	C272.902405,144.652924 273.029846,142.438293 271.143097,140.006500 
	C262.487976,150.338593 255.215042,161.436676 247.155182,172.648849 
M371.528259,156.898819 
	C376.278381,165.598740 383.767792,170.858444 392.623047,174.402817 
	C392.962189,174.096313 393.301331,173.789825 393.640442,173.483322 
	C385.540527,162.348236 377.440582,151.213135 368.866302,139.425949 
	C366.115448,146.269745 368.598328,151.261002 371.528259,156.898819 
z"/>
</svg>